<svg xmlns="http://www.w3.org/2000/svg" viewBox="0 0 5.67 6.51"><defs><style>.cls-1{fill:#273340;}.cls-2{fill:#fefefe;}.cls-3{fill:#fafafa;}.cls-4{fill:#f9f9f9;}.cls-5{fill:#f8f8f8;}.cls-6{fill:#fdfdfd;}.cls-7{fill:#fcfcfc;}.cls-8{fill:#fbfbfb;}</style></defs><title>ARIcon</title><g id="Layer_2" data-name="Layer 2"><g id="Layer_1-2" data-name="Layer 1"><path class="cls-1" d="M1.14,1.11a2.1,2.1,0,0,0,0-.29.08.08,0,0,1,0-.1,1.71,1.71,0,0,1,0-.29.44.44,0,0,1,.3-.36A1,1,0,0,1,1.7,0H4.09s.08,0,.12,0l.14.06a.1.1,0,0,1,.06.05l.1.13.05.1,0,.2a.07.07,0,0,1,0,.1,2.1,2.1,0,0,0,0,.29.08.08,0,0,1,0,.1,2.1,2.1,0,0,0,0,.29.08.08,0,0,1,0,.1,2.1,2.1,0,0,0,0,.29.08.08,0,0,1,0,.1,2.1,2.1,0,0,0,0,.29.08.08,0,0,1,0,.1,2.1,2.1,0,0,0,0,.29.08.08,0,0,1,0,.1,2.12,2.12,0,0,0,0,.29v.39a.19.19,0,0,1,0,.1,2.1,2.1,0,0,0,0,.29.08.08,0,0,1,0,.1,2.1,2.1,0,0,0,0,.29v.39a.19.19,0,0,1,0,.1,2.1,2.1,0,0,0,0,.29.08.08,0,0,1,0,.1,2.1,2.1,0,0,0,0,.29.08.08,0,0,1,0,.1,2.1,2.1,0,0,0,0,.29.08.08,0,0,1,0,.1V6a.24.24,0,0,1-.06.18,1.17,1.17,0,0,1-.15.18.26.26,0,0,1-.22.1H1.58a.06.06,0,0,1-.06,0l-.14-.08a.07.07,0,0,1-.06-.06l-.1-.15V5.88a.08.08,0,0,1,0-.1,2.1,2.1,0,0,0,0-.29.08.08,0,0,1,0-.1,2.1,2.1,0,0,0,0-.29.08.08,0,0,1,0-.1,2.1,2.1,0,0,0,0-.29.08.08,0,0,1,0-.1,2.1,2.1,0,0,0,0-.29.08.08,0,0,1,0-.1,2.1,2.1,0,0,0,0-.29.08.08,0,0,1,0-.1,2.1,2.1,0,0,0,0-.29V3.15a.19.19,0,0,1,0-.1,2.1,2.1,0,0,0,0-.29V2a.19.19,0,0,1,0-.1,2.1,2.1,0,0,0,0-.29.08.08,0,0,1,0-.1,2.1,2.1,0,0,0,0-.29A.08.08,0,0,1,1.14,1.11Z"/><path class="cls-1" d="M.19,3.51H.14L0,3.41a.11.11,0,0,1,.06-.13l.13-.09a.12.12,0,0,1,.05-.05c.09-.06.1-.05.14.05s0,.1-.06.13-.06.06,0,.1.1,0,.06.11-.06.1-.12,0Z"/><path class="cls-1" d="M5.65,3.26a.12.12,0,0,1,0,.12l-.12.1a.48.48,0,0,1-.19.13c-.1-.08-.1-.15,0-.23s.06,0,0-.07-.05,0-.06-.06a.71.71,0,0,1,0-.13s.06,0,.09,0a.22.22,0,0,0,.09.06A.52.52,0,0,0,5.65,3.26Z"/><path class="cls-1" d="M1,2.67c0,.08,0,.16,0,.21L.73,3H.66A.09.09,0,0,1,.62,3c0-.07.05-.08.09-.1l.22-.13S1,2.65,1,2.67Z"/><path class="cls-1" d="M4.7,3.84l.3-.2c.05,0,.06,0,.08.06a.1.1,0,0,1,0,.13H5l-.17.11L4.76,4S4.7,4,4.7,4A.75.75,0,0,1,4.7,3.84Z"/><path class="cls-1" d="M.65,3.79a0,0,0,0,1,0-.05l0-.1H.78l.14.09A.25.25,0,0,1,1,3.79c0,.06,0,.13,0,.2L.86,3.92a.12.12,0,0,0-.06,0Z"/><path class="cls-1" d="M5,2.85l.09.06a.66.66,0,0,0,0,.08c0,.07-.05.06-.09,0H4.93l-.16-.1a.23.23,0,0,1,0-.22l.07,0a.22.22,0,0,0,.09.06Z"/><path class="cls-2" d="M3.16.81h.25c0,.05,0,.07,0,.1l-.53.63a1,1,0,0,1-.2.14.09.09,0,0,0-.05.1.18.18,0,0,1-.06.13l-1,1.21s0,.07-.08,0h0c0-.29,0-.29.17-.49s.21-.24.31-.38a1.71,1.71,0,0,1,.3-.21C2.3,2,2.3,2,2.27,1.92a.18.18,0,0,1,.06-.12L3.07.87Z"/><path class="cls-2" d="M1.51,6.26a.22.22,0,0,1-.08-.18h0A.24.24,0,0,1,1.49,6L2.66,4.6s.06-.09.12-.09a.24.24,0,0,1,.11.07.06.06,0,0,1,0,.08h0a1.32,1.32,0,0,1-.23.26c-.07,0-.09,0-.1.11a.25.25,0,0,1-.06.11L1.6,6.22A.16.16,0,0,1,1.51,6.26Z"/><path class="cls-2" d="M4.19.42a.18.18,0,0,1,.09.12v.1L3,2.12s-.05.05-.09.05l-.16,0V2.08a1.14,1.14,0,0,1,.29-.32h0s.06,0,.09,0,0-.08,0-.12a.17.17,0,0,1,.06-.1L4.11.47S4.13.37,4.19.42Z"/><path class="cls-2" d="M2.49.81h.25s0,.07,0,.09L1.51,2.32s0,.1-.09,0,0-.17,0-.25A.16.16,0,0,1,1.48,2L2.42.86Z"/><path class="cls-2" d="M2.83.81h.25c0,.06,0,.08-.06.11l-.8.93L2.14,2a2.87,2.87,0,0,1-.5.32V2.21l.06-.08L2.75.88Z"/><path class="cls-2" d="M1.63,6.3h0V6.24l.06-.07.89-1.05S2.64,5,2.69,5a.2.2,0,0,1,.14.09.12.12,0,0,1,0,.11l-.86,1a.1.1,0,0,1-.08.05Z"/><path class="cls-2" d="M3.49.81c.17,0,.25-.16.3-.34s.05-.1.12-.1h.19s0,.07,0,.09l-.92,1.1a.14.14,0,0,1-.07.06.2.2,0,0,1-.16-.11.11.11,0,0,1,0-.08L3.43.85Z"/><path class="cls-2" d="M2.2.8H2.4s0,.07,0,.09l-.86,1s0,.1-.09,0,0-.17,0-.25a.14.14,0,0,1,0-.09L2.1.84S2.16.78,2.2.8Z"/><path class="cls-2" d="M2,.65l.1.12v.1l-.58.68s0,.08-.07,0,0-.17,0-.25a.11.11,0,0,1,0-.07L1.92.65S2,.62,2,.65Z"/><path class="cls-2" d="M1.91.37l0,.13a.09.09,0,0,1,0,.1l-.43.52s0,.07-.06,0a.73.73,0,0,1,0-.25.12.12,0,0,1,0-.07L1.79.38Z"/><path class="cls-3" d="M2.83.81,2.77.89,1.68,2.2s-.06,0,0,.08,0,0,0,.06-.06.07-.1.11,0,.05-.06,0,0-.06,0-.09l.41-.48.84-1L2.74.79Z"/><path class="cls-4" d="M1.43,2.37v.1c0,.07,0,.15,0,.24a2.94,2.94,0,0,0,.23-.3.29.29,0,0,1,.22-.13,2.53,2.53,0,0,1-.35.42.51.51,0,0,0-.13.46V5.94a.23.23,0,0,1,0,.1h0a.23.23,0,0,1,0-.1V.7a.2.2,0,0,1,0-.1s0,.1,0,.15a.23.23,0,0,1,0,.1V2.05Z"/><path class="cls-3" d="M2.91,2.18A.08.08,0,0,0,3,2.12L4.22.65A.15.15,0,0,0,4.27.56a.09.09,0,0,1,0,.07.08.08,0,0,1,0,0,.19.19,0,0,1,0,.07L3,2.22S2.92,2.23,2.91,2.18Z"/><path class="cls-5" d="M4.29.67v0a.22.22,0,0,1,0,.1V6a.23.23,0,0,1,0,.1c-.05-.07,0-.15,0-.24V4.29c-.05,0-.06.09-.12.1h0a.11.11,0,0,1,0-.12c.17-.1.18-.27.16-.46V.95A.84.84,0,0,1,4.29.67Z"/><path class="cls-3" d="M2.63,5a.08.08,0,0,0-.07.05L1.63,6.22a0,0,0,0,0,0,.08.12.12,0,0,1-.09-.06l.06-.07.92-1.09S2.58,5,2.58,5A.07.07,0,0,1,2.63,5Z"/><path class="cls-3" d="M3.07,1.62l.07-.07L4.05.46,4.11.38a.11.11,0,0,1,.1,0,.08.08,0,0,0-.07,0l-1,1.16h0S3.07,1.67,3.07,1.62Z"/><path class="cls-3" d="M1.43,2.07V2L2,1.23c.12-.15.26-.29.37-.45H2.5l-.08.1Z"/><path class="cls-3" d="M2.13,2l.06-.08L3,.88,3.07.8h.09l-.29.35-.54.65a.23.23,0,0,0-.06.1S2.19,2,2.13,2Z"/><path class="cls-2" d="M4.29,5.83v.24a.24.24,0,0,1-.19.24H3.92a.17.17,0,0,1,0-.07l.28-.33S4.26,5.81,4.29,5.83Z"/><path class="cls-3" d="M1.43,1.68v-.1L2.07.84a.19.19,0,0,0,0-.05l.1,0s-.06,0-.09.07Z"/><path class="cls-4" d="M3.9,6.26H2.22c.21.06.35-.07.45-.26.05,0,.06,0,.08.08a.64.64,0,0,1-.16.19H3.9Z"/><path class="cls-3" d="M3.49.81c-.17.22-.35.41-.52.63a.31.31,0,0,0-.07.1.06.06,0,0,1-.08,0L3.34.9,3.41.81Z"/><path class="cls-6" d="M1.43.78V.62a.24.24,0,0,1,.2-.25h.14s0,.09-.07.13L1.53.7S1.47.79,1.43.78Z"/><path class="cls-3" d="M1.43,1.28v-.1L1.92.6a.1.1,0,0,0,0-.06L2,.65s-.06,0-.08.07Z"/><path class="cls-3" d="M1.43.78l.31-.4H1.63a1,1,0,0,1,.27,0H1.8L1.42.84Z"/><path class="cls-1" d="M2.13,2c.05,0,.09-.08.15-.06a.24.24,0,0,0,0,0v.12l-.35.23a1.25,1.25,0,0,0-.22.14c-.06,0-.1,0-.11-.12l.05,0Z"/><path class="cls-3" d="M1.43,3.26v-.1l.28-.32.79-.95s.06-.06.06-.12.05,0,.07.06,0,.07-.06.1l-.45.53a.27.27,0,0,0-.06.09c-.05.06-.13.09-.17.18l-.39.46S1.47,3.27,1.43,3.26Z"/><path class="cls-1" d="M2.63,1.84s0,0-.06-.06,0-.08,0-.11l.23-.15h.08l.15.1.06,0s.06.06,0,.12-.09,0-.12,0l-.1,0a.1.1,0,0,0-.14,0h0A.34.34,0,0,1,2.63,1.84Z"/><path class="cls-1" d="M1.89,2.73c0-.11.11-.12.17-.18a.15.15,0,0,1,.06-.06c.14-.07.27-.17.41-.26a.76.76,0,0,1,.21-.1.27.27,0,0,1,.17,0L3,2.22c.06,0,.1,0,.15.07l.07,0,.14.1.07,0c.05,0,.1.06.15.1l.07,0,.16.1a.22.22,0,0,1,0,.08,2.52,2.52,0,0,1,0,.27v.78a.42.42,0,0,1,0,.1.21.21,0,0,1-.11.15l-.2.13L3,4.52a.14.14,0,0,1-.17,0l-.1-.06a.13.13,0,0,1-.09,0l-.14-.08-.09-.06-.13-.08-.09-.05-.13-.09L2,4a.25.25,0,0,1-.12-.12.34.34,0,0,1,0-.11V3A.75.75,0,0,1,1.89,2.73Z"/><path class="cls-3" d="M2.69,4.43l.09.05s-.07,0-.09.07L1.5,6,1.44,6v-.1a.33.33,0,0,1,.06-.1L2.62,4.49S2.66,4.44,2.69,4.43Z"/><path class="cls-1" d="M2.63,5,2.54,5c0-.13,0-.15.12-.12h.07a.12.12,0,0,0,.17,0l0,0c.06,0,.1-.09.17-.07S3.18,5,3.1,5l-.21.13a.11.11,0,0,1-.13-.06Z"/><path class="cls-5" d="M2.73,4.91l-.06,0a2.47,2.47,0,0,0,.22-.26c.07-.08,0,0,0-.06s.11,0,.17,0a0,0,0,0,1,0,0A2.5,2.5,0,0,1,2.73,4.91Z"/><path class="cls-4" d="M2.75,2.13a1.1,1.1,0,0,1-.2.13V2.18c.12-.15.25-.3.37-.44A.22.22,0,0,1,3,1.8c-.11.06-.17.19-.26.28S2.72,2.1,2.75,2.13Z"/><path class="cls-3" d="M2.76,5.13s.08.06.13,0-.11.09-.16.15c-.25.3-.5.6-.72.89a.34.34,0,0,1-.09.09H1.83l.85-1S2.75,5.2,2.76,5.13Z"/><path class="cls-2" d="M1.58,2.32s0,.15.11.12h0l-.27.32V2.44C1.49,2.43,1.52,2.34,1.58,2.32Z"/><path class="cls-2" d="M2.69,4.43,1.54,5.81l-.11.12V5.63a.31.31,0,0,1,.06-.1l.6-.74s.06-.07.1-.08.09,0,.09-.1a.12.12,0,0,1,0-.09l.16-.19a.06.06,0,0,1,.07,0A.62.62,0,0,1,2.69,4.43Z"/><path class="cls-2" d="M1.43,5.52V5.23a.3.3,0,0,1,.06-.1l.4-.47s.05-.07.1-.07a.27.27,0,0,1,.14.09v.1l-.58.69A.32.32,0,0,1,1.43,5.52Z"/><path class="cls-2" d="M1.89,3.52a2.19,2.19,0,0,1,0,.29,1.28,1.28,0,0,1-.19.25l-.2.24s0,.06-.07.05v-.3a.36.36,0,0,1,.08-.13l.3-.35S1.86,3.51,1.89,3.52Z"/><path class="cls-2" d="M1.89,2.73V3a1.28,1.28,0,0,1-.19.25l-.2.24s0,.06-.07.05V3.26l.4-.46Z"/><path class="cls-2" d="M1.89,3.12a2.18,2.18,0,0,1,0,.29,1.28,1.28,0,0,1-.19.25l-.2.24s0,.06-.07.05V3.66a.36.36,0,0,1,.08-.13l.3-.35S1.86,3.11,1.89,3.12Z"/><path class="cls-2" d="M1.43,5.14V4.85a1.35,1.35,0,0,1,.32-.38.24.24,0,0,1,.15.09.08.08,0,0,1,0,.09l-.4.47S1.45,5.16,1.43,5.14Z"/><path class="cls-3" d="M1.43,5.52l.66-.78a.15.15,0,0,0,0,0s.07,0,.09.05-.06,0-.08.07l-.68.81Z"/><path class="cls-2" d="M1.43,4.75V4.46a.56.56,0,0,1,.14-.18h.06s0,.1.05.13a.07.07,0,0,1,0,.08l-.19.24Z"/><path class="cls-3" d="M1.43,5.14l.45-.53h0s.07,0,.08.05-.06,0-.08.07l-.47.54Z"/><path class="cls-3" d="M1.63,4.29h0l-.14.17v-.1l.39-.46L2,3.82v.1a3,3,0,0,1-.19.24.24.24,0,0,0-.06.09Z"/><path class="cls-3" d="M1.43,4l.39-.46.07-.08v.1L1.5,4l-.07.08Z"/><path class="cls-3" d="M1.89,3.12l-.39.46-.07.08v-.1l.39-.46L1.89,3Z"/><path class="cls-3" d="M1.43,4.75l.22-.26a.05.05,0,0,0,0-.06c.05,0,.07,0,.09.06s-.21.25-.32.36Z"/><path class="cls-2" d="M3.14,2.32,3,2.23a.11.11,0,0,1,0-.07L4.23.69h0V1a.3.3,0,0,1-.06.1l-.6.77a.19.19,0,0,1-.07.07S3.44,2,3.42,2a1.58,1.58,0,0,1-.23.3A0,0,0,0,1,3.14,2.32Z"/><path class="cls-2" d="M1.89,6.26l.51-.62.31-.37c.05-.06.09-.13.17-.13L3.1,5c.08,0,.09-.09,0-.16h0V4.77c.19-.22.37-.46.58-.67A.24.24,0,0,0,3.81,4a5.57,5.57,0,0,1,.43-.52v.29a.32.32,0,0,1-.07.11c-.18.22-.37.43-.55.66a.72.72,0,0,1-.17.12.11.11,0,0,0-.06.13.23.23,0,0,1-.06.11l-.67.79-.47.56a.3.3,0,0,1-.09.08Z"/><path class="cls-2" d="M3.15,6.26H2.9s0-.07,0-.09L4.22,4.65s0-.06.07-.05v.29A.32.32,0,0,1,4.22,5l-1,1.17A.31.31,0,0,1,3.15,6.26Z"/><path class="cls-2" d="M4.14,4.39l.14-.15v.29a.3.3,0,0,1-.06.1L3.16,5.89,3.1,6H3.05a1.58,1.58,0,0,1,0-.19.16.16,0,0,1,.05-.12l1-1.17A.24.24,0,0,1,4.14,4.39Z"/><path class="cls-2" d="M3.48,6.26H3.23s0-.07,0-.09L4.22,5s0-.06.07-.05v.29a.3.3,0,0,1-.06.1l-.66.79A.29.29,0,0,1,3.48,6.26Z"/><path class="cls-2" d="M4.29,1.06v.29h0A7.88,7.88,0,0,1,3.74,2a.23.23,0,0,1-.17-.1.11.11,0,0,1,0-.08l.63-.74S4.26,1,4.29,1.06Z"/><path class="cls-2" d="M3.8,6.26H3.55s0-.07,0-.09l.61-.74s0-.06.07-.05v.29a.3.3,0,0,1-.06.1l-.33.4A.28.28,0,0,1,3.8,6.26Z"/><path class="cls-3" d="M3.07,5.94s.05,0,.06,0L4.22,4.6l.06-.07v.1l-.06.07L2.95,6.22l-.06.07H2.8c0-.06,0-.08.06-.12s.06-.05.06-.1S3,6,3.07,5.94Z"/><path class="cls-2" d="M3.8,3.09V2.79a.43.43,0,0,1,.1-.14l.29-.34s0-.07.08-.05v.29a.36.36,0,0,1-.08.13L3.88,3A.07.07,0,0,1,3.8,3.09Z"/><path class="cls-2" d="M3.8,3.48V3.18A1,1,0,0,1,4,3l.22-.26s0-.06.07-.05v.29a.36.36,0,0,1-.08.13l-.3.35A.06.06,0,0,1,3.8,3.48Z"/><path class="cls-2" d="M3.8,3.88V3.58A1,1,0,0,1,4,3.36l.22-.26s0-.06.07-.05v.29a.36.36,0,0,1-.08.13l-.3.35A.06.06,0,0,1,3.8,3.88Z"/><path class="cls-2" d="M4.29,1.46v.29a2.26,2.26,0,0,1-.35.43.23.23,0,0,1-.17-.1.1.1,0,0,1,0-.08l.42-.49S4.26,1.45,4.29,1.46Z"/><path class="cls-1" d="M3.43,4.75c0-.07,0-.1,0-.13l.19-.13a.89.89,0,0,1,.22-.15c.05,0,.1-.07.15-.1s.08,0,.09.05,0,.06,0,.1a.82.82,0,0,1-.18.13c-.14.07-.27.18-.41.26H3.46S3.44,4.79,3.43,4.75Z"/><path class="cls-3" d="M4.29,5l-.55.65-.51.62H3.15l.44-.53.72-.84Z"/><path class="cls-3" d="M3.94,4.51a.88.88,0,0,1,.19-.12h0l-.3.36-.72.88s-.06.05-.06.1S3,5.69,3,5.65a.21.21,0,0,1,.06-.08l.86-1Z"/><path class="cls-2" d="M4.11,4.29c0-.05,0-.06-.09,0l-.14.09s0-.05,0-.07l.19-.23.14-.17s0-.06.08-.05a1,1,0,0,0,0,.15.41.41,0,0,1-.15.31Z"/><path class="cls-3" d="M4.29,5.43q-.37.43-.72.87H3.49q.4-.49.81-1Z"/><path class="cls-3" d="M4.29,1.06c-.25.29-.5.57-.72.87,0,0-.06,0-.06,0l.55-.64L4.3,1Z"/><path class="cls-2" d="M4.29,1.84v.29a.31.31,0,0,1-.15.17A.24.24,0,0,1,4,2.2a.08.08,0,0,1,0-.06l.23-.28Z"/><path class="cls-3" d="M4.29,3.84l-.41.49h0a1.21,1.21,0,0,1-.22.14c.2-.26.42-.51.63-.74Z"/><path class="cls-3" d="M4.29,1.46c-.18.2-.35.4-.51.61H3.73A2.93,2.93,0,0,1,4,1.74l.3-.35Z"/><path class="cls-3" d="M4.29,3,3.9,3.5l-.07.08v-.1L4.22,3l.07-.08Z"/><path class="cls-3" d="M4.29,2.65l-.39.46-.07.08V3.1l.39-.46.07-.08Z"/><path class="cls-3" d="M3.8,3.88l.39-.46.07-.08v.1l-.39.46L3.8,4Z"/><path class="cls-4" d="M4.14,2.32c.06,0,.09-.12.15-.16v.1l-.4.46-.07.07V2.73a1.62,1.62,0,0,1,.25-.3S4.1,2.34,4.14,2.32Z"/><path class="cls-3" d="M3.8,6.26Q4,6,4.28,5.69v.1q-.21.23-.4.47Z"/><path class="cls-3" d="M4.29,1.84A3.81,3.81,0,0,0,4,2.2H3.95a4.5,4.5,0,0,1,.35-.42Z"/><path class="cls-1" d="M3,5.64l.05.07a.49.49,0,0,1,0,.21.37.37,0,0,1-.13.16.13.13,0,0,1-.19,0L2.67,6a.13.13,0,0,1-.05-.1.3.3,0,0,1,.08-.26.19.19,0,0,1,.17-.08A.15.15,0,0,1,3,5.64Z"/><path class="cls-2" d="M2.64,5.9l0,.1c0,.07,0,.09-.06.13a.33.33,0,0,1-.38.16V6.21l.29-.35s0-.06.06,0S2.63,5.88,2.64,5.9Z"/><path class="cls-3" d="M2.64,5.9V5.85l-.4.44H2.16c.18-.22.36-.44.55-.65h0A.35.35,0,0,0,2.64,5.9Z"/><path class="cls-6" d="M2.74,6.08a.26.26,0,0,0,.19,0c0,.1-.1.12-.13.2H2.56A1.36,1.36,0,0,1,2.74,6.08Z"/><path class="cls-2" d="M2.95,1.74s0,.07-.06.1a5.39,5.39,0,0,0-.35.43c-.16.1-.32.21-.48.29V2.48l.47-.56.06-.08.2-.13A.12.12,0,0,1,2.95,1.74Z"/><path class="cls-2" d="M3,4.05a2.19,2.19,0,0,1,0-.29.46.46,0,0,1,.06-.1l.44-.52s0-.1.09,0,0,.17,0,.25a.15.15,0,0,1-.05.1L3.1,4A.12.12,0,0,1,3,4.05Z"/><path class="cls-2" d="M2.73,4.91c.07-.12.17-.21.25-.32A.26.26,0,0,0,3,4.51c.16-.1.32-.21.48-.29h0a.13.13,0,0,1,0,.07c-.18.21-.35.43-.54.63S2.8,5,2.73,4.91Z"/><path class="cls-2" d="M3.41,4,3,4.24a.19.19,0,0,1,0-.1l0-.09.44-.52s0-.08.09,0a.67.67,0,0,0,0,.09.39.39,0,0,1-.17.4Z"/><path class="cls-2" d="M2.71,3.32a.24.24,0,0,1,.1.07.24.24,0,0,1-.06.24l-.26.3c-.09.1,0,.07-.09.06l-.14-.09a0,0,0,0,1,0-.06A6.22,6.22,0,0,1,2.71,3.32Z"/><path class="cls-2" d="M2.18,3.84a.12.12,0,0,1-.06,0,.25.25,0,0,1,.06-.25l.25-.29c.09-.1,0-.05.07-.07a.72.72,0,0,1,.17.1v.08L2.3,3.8S2.22,3.86,2.18,3.84Z"/><path class="cls-2" d="M2.84,2.41,3,2.49a0,0,0,0,1,0,.05A3.38,3.38,0,0,1,2.61,3a.72.72,0,0,1-.17-.1V2.79l.28-.34S2.8,2.38,2.84,2.41Z"/><path class="cls-2" d="M3.07,2.58a.45.45,0,0,1,.13.08v.1l-.28.33s-.06.06-.09,0L2.7,3s0-.07,0-.09L3,2.6S3,2.52,3.07,2.58Z"/><path class="cls-6" d="M3.28,2.68l.22.13L3,3.15a0,0,0,0,1-.07,0h0a.07.07,0,0,1,0-.07l.3-.35S3.25,2.67,3.28,2.68Z"/><path class="cls-2" d="M2.63,4.12,2.48,4V3.94l.25-.29s0,0,.06,0,0,0,0,.07v.15A.32.32,0,0,1,2.63,4.12Z"/><path class="cls-2" d="M2.3,3.07a.36.36,0,0,1,.14.08.07.07,0,0,1,0,.06l-.26.31H2.13c-.05,0,0,0,0-.06V3.31A.33.33,0,0,1,2.29,3Z"/><path class="cls-2" d="M3.36,2.45l-.15-.1h0a.69.69,0,0,1,.26-.29.24.24,0,0,1,.15.1.07.07,0,0,1,0,.07l-.17.21S3.38,2.46,3.36,2.45Z"/><path class="cls-2" d="M1.63,4.24h0a1.46,1.46,0,0,1,.27-.3C1.9,4,2,4,2,4H2a.73.73,0,0,1-.25.28A.19.19,0,0,1,1.63,4.24Z"/><path class="cls-2" d="M4,2.43a2.66,2.66,0,0,1-.25.29l-.15-.1a.05.05,0,0,1,0-.05l.18-.21a.09.09,0,0,1,.08,0A.17.17,0,0,1,4,2.43Z"/><path class="cls-2" d="M2.35,4.21a.45.45,0,0,1,.13.08,0,0,0,0,1,0,.05,1,1,0,0,1-.23.26.2.2,0,0,1-.14-.08.07.07,0,0,1,0-.07,1.19,1.19,0,0,1,.21-.25Z"/><path class="cls-2" d="M2.11,4.05l.14.08a0,0,0,0,1,0,0A1,1,0,0,1,2,4.44a.23.23,0,0,1-.15-.09.07.07,0,0,1,0-.07L2,4.07Z"/><path class="cls-2" d="M3.58,2.58a.61.61,0,0,1-.15-.1.06.06,0,0,1,0-.06l.17-.21a.08.08,0,0,1,.08,0,.27.27,0,0,1,.14.1.07.07,0,0,1,0,.07l-.18.21Z"/><path class="cls-3" d="M2.63,4.12a.79.79,0,0,0,.16-.18c.06-.09,0-.2,0-.29A3.43,3.43,0,0,0,2.45,4L2.38,4a5.65,5.65,0,0,0,.38-.45c.12-.15,0-.1,0-.15a.36.36,0,0,1,0,.16v.53c0-.05-.06.07-.09.08Z"/><path class="cls-4" d="M3,4.93a.58.58,0,0,1,.12-.15l.41-.49s.06,0,0-.07a1,1,0,0,1,.2-.13,4.44,4.44,0,0,1-.3.38l-.25.29a.15.15,0,0,0-.05.09S3,4.91,3,4.93Z"/><path class="cls-3" d="M2.3,3.07c-.16.08-.21.21-.18.45l.32-.36h.05a3.38,3.38,0,0,1-.3.37.29.29,0,0,0-.09.25V3h0V3.1c0,.05.05-.08.1-.07S2.28,3,2.3,3.07Z"/><path class="cls-6" d="M3,3.64c0-.26,0-.26.17-.37l.22-.13c.06,0,0,.05,0,.07l-.12.15-.2.24S3.07,3.65,3,3.64Z"/><path class="cls-3" d="M3.61,3.46l-.53.59L3,4.13V4.05l.49-.57.09-.1A.1.1,0,0,1,3.61,3.46Z"/><path class="cls-3" d="M3,3.64l.4-.46v0A.62.62,0,0,1,3.58,3h0l-.5.6L3,3.72Z"/><path class="cls-7" d="M2.39,2.84l-.18-.1.45-.26v.06A2.24,2.24,0,0,1,2.39,2.84Z"/><path class="cls-4" d="M2.18,3.84h0l.45-.54h.05c-.12.18-.27.32-.4.49a.19.19,0,0,0-.06.1Z"/><path class="cls-4" d="M3.28,2.68H3.23l-.35.42-.09-.05h.06l.33-.4h0Z"/><path class="cls-4" d="M2.39,2.84a3.53,3.53,0,0,1,.23-.29s.06,0,0-.07.11-.13.19-.06H2.76l-.35.43Z"/><path class="cls-3" d="M3.07,2.58H3L2.67,3H2.62c.09-.14.21-.25.31-.38S3,2.57,3,2.53Z"/><path class="cls-5" d="M3.61,3.07h0v.77a.07.07,0,0,1,0,.07L3.44,4a.4.4,0,0,1,.12-.15.28.28,0,0,0,.09-.24s0-.1,0-.15v-.4Z"/><path class="cls-4" d="M3.46,2.07a1,1,0,0,0-.26.29l-.07,0A1.47,1.47,0,0,0,3.41,2,.19.19,0,0,1,3.46,2.07Z"/><path class="cls-5" d="M2.11,4.05a.87.87,0,0,0-.25.29s-.07,0-.09-.05A.88.88,0,0,0,2,4Z"/><path class="cls-5" d="M2,4.46a1.16,1.16,0,0,0,.24-.3.22.22,0,0,1,.09.06,1.07,1.07,0,0,0-.25.26h0S2,4.51,2,4.46Z"/><path class="cls-5" d="M3.69,2.21a.09.09,0,0,0-.08,0l-.19.24a.12.12,0,0,1-.06,0,2.93,2.93,0,0,0,.25-.29S3.68,2.15,3.69,2.21Z"/><path class="cls-4" d="M2.22,4.6a1.11,1.11,0,0,0,.24-.3.22.22,0,0,1,.09.06.91.91,0,0,0-.25.27h0S2.24,4.64,2.22,4.6Z"/><path class="cls-5" d="M3.58,2.58a3,3,0,0,0,.25-.29s.07,0,.09.05a.09.09,0,0,0-.08,0l-.19.24A.11.11,0,0,1,3.58,2.58Z"/><path class="cls-8" d="M2.69,4.16,2.8,4v.21A.24.24,0,0,1,2.69,4.16Z"/><path class="cls-7" d="M2.23,3l-.12.12v-.2A.17.17,0,0,1,2.23,3Z"/><path class="cls-1" d="M2.22,4.6a.22.22,0,0,0,.09.06c0,.13,0,.15-.12.12l-.09-.05L2,4.64l-.08-.05L1.75,4.5a.22.22,0,0,0-.09-.06s-.09-.06-.05-.14l0-.06.13.08.09.05L2,4.46a.22.22,0,0,0,.09.06Z"/><path class="cls-1" d="M3.91,2.35,3.82,2.3l-.14-.08-.08-.05-.14-.09s-.08,0-.06-.1,0-.1.09-.08a.12.12,0,0,0,.06,0l.17.1h.05a.72.72,0,0,0,.17.1H4l.14.1s0,.13-.09.12Z"/><path class="cls-3" d="M2.71,5.64h0l.66-.8.07-.1V4.8c0,.05,0,.07-.05.1l-.48.57a.21.21,0,0,0-.06.1A.26.26,0,0,0,2.71,5.64Z"/><path class="cls-2" d="M2.88,5.58s0-.06,0-.08l.51-.61.06-.08.48-.29v0L3,5.64H3A.32.32,0,0,0,2.88,5.58Z"/></g></g></svg>