<svg xmlns="http://www.w3.org/2000/svg" viewBox="0 0 78.98 60.06"><defs><style>.cls-1{fill:#b8deff;}</style></defs><title>back-arrow-icon</title><g id="Layer_2" data-name="Layer 2"><g id="Layer_1-2" data-name="Layer 1"><path class="cls-1" d="M24.56,22.86h47.1a7.18,7.18,0,0,1,.53,14.35H24.57c.23.25.37.41.53.57,3.32,3.32,6.66,6.63,10,10A7.18,7.18,0,1,1,24.84,57.85L6.38,39.39C5,38,3.66,36.69,2.32,35.33A6.93,6.93,0,0,1,.46,27.69,7.51,7.51,0,0,1,2.11,25Q13.53,13.48,25,2a7.12,7.12,0,0,1,10.05.06,7.14,7.14,0,0,1,.06,10.1c-3.31,3.37-6.67,6.68-10,10Z"/></g></g></svg>