<svg xmlns="http://www.w3.org/2000/svg" viewBox="0 0 304.01 304.04"><defs><style>.cls-1{fill:#b8deff;}</style></defs><title>exit-icon</title><g id="Layer_2" data-name="Layer 2"><g id="Layer_1-2" data-name="Layer 1"><path class="cls-1" d="M0,273.56q0-3.57,0-7.13a11.85,11.85,0,0,0,.28-1.19c.7-5.16,2.27-10,5.84-13.91,4.62-5.08,9.18-10.23,14-15.09q41.23-41.49,82.59-82.86c.42-.42.82-.86,1.39-1.47-.62-.51-1.13-.88-1.56-1.31q-34.5-34.53-69-69.09C24.81,72.68,16.25,63.65,7.64,54.65A24.35,24.35,0,0,1,1.06,42.92C.66,41.06.35,39.19,0,37.33q0-3.1,0-6.2C.26,29.55.46,28,.79,26.4,3.47,13.42,15.61,2.08,28.84.46c10-1.23,19.2.83,26.71,8.14,2.18,2.13,4.49,4.13,6.65,6.28q44.17,43.94,88.3,87.92a10.17,10.17,0,0,1,1.06,1.52l.73.05a8.94,8.94,0,0,1,1-1.55q34.53-34.51,69.11-69,13.36-13.27,27.1-26.14c8.91-8.34,19.63-9.18,30.71-6a33.57,33.57,0,0,1,23.55,34.69c-.44,6.46-2.26,12.37-6.74,17.24-3.22,3.5-6.33,7.1-9.68,10.47q-43,43.31-86.18,86.54a10.16,10.16,0,0,1-1.53,1.06v.67a10.47,10.47,0,0,1,1.51,1.06q34.25,34.25,68.45,68.54c9.1,9.16,18.09,18.44,26.87,27.91,8.16,8.79,8.94,19.41,5.8,30.32a33.52,33.52,0,0,1-35.81,23.62c-5.89-.54-11.36-2.25-15.78-6.37-6.43-6-12.92-11.9-19.15-18.09q-39.25-39-78.35-78.15c-.42-.42-.86-.82-1.43-1.37-.52.61-.9,1.11-1.34,1.54Q120.08,231.8,89.7,262.14,73.43,278.31,56.9,294.21c-4,3.85-8.19,7.58-13.89,8.59a57,57,0,0,1-10.73,1.08C17.59,303.66,3.84,292.17.76,277.8.46,276.4.25,275,0,273.56Z"/></g></g></svg>