<svg xmlns="http://www.w3.org/2000/svg" viewBox="0 0 56.09 56.09"><defs><style>.cls-1{fill:#bcddf6;}.cls-2{fill:#41729b;}</style></defs><g id="Layer_2" data-name="Layer 2"><g id="Layer_1-2" data-name="Layer 1"><path class="cls-1" d="M26.93,0h2.24c.48.27,1,.06,1.49.13A22.35,22.35,0,0,1,43.9,4.56,28.08,28.08,0,0,1,55.42,20.75,16.55,16.55,0,0,1,56,25.18c.06.5-.15,1,.12,1.5v4.73a24.46,24.46,0,0,1-2.87,9.68A28.41,28.41,0,0,1,34.7,55.62c-1.41.35-2.87.19-4.28.47h-4c-.41-.26-.86-.07-1.28-.12-5.71,0-10.55-2.41-14.89-5.84A27.52,27.52,0,0,1,.53,34.9,16.41,16.41,0,0,1,.13,31c-.06-.42.13-.88-.13-1.28V25.18a24.46,24.46,0,0,1,1.32-6.65Q6.81,4.16,21.73.42a13.89,13.89,0,0,1,3.7-.29C25.93.06,26.45.27,26.93,0Z"/><path class="cls-2" d="M34.24,41.59c.14,1.62-.81,2.13-2,2.56a12.36,12.36,0,0,1-5.43,1c-3.79-.36-5.56-2.63-4.73-6.38.71-3.18,1.69-6.3,2.43-9.47S24.41,25,20.7,25.8c-.31.07-.61.18-1,.29.05-1.17.29-2,1.59-2.43,2.37-.76,4.68-1.67,7.25-1A4.28,4.28,0,0,1,32,27.2c-.05,2.95-1.25,5.63-1.94,8.43a21.44,21.44,0,0,0-.85,4.11c-.06,1.76.58,2.36,2.37,2.4A11.27,11.27,0,0,0,34.24,41.59Z"/><path class="cls-2" d="M34.86,14.81a4.34,4.34,0,0,1-8.66,0,4.34,4.34,0,0,1,8.66,0Z"/></g></g></svg>