<svg xmlns="http://www.w3.org/2000/svg" viewBox="0 0 23.37 23.03"><defs><style>.cls-1{fill:#407099;}</style></defs><title>plane-icon</title><g id="Layer_2" data-name="Layer 2"><g id="Layer_1-2" data-name="Layer 1"><path class="cls-1" d="M11.66,0h0C10.09.05,9.83,2.61,9.83,2.61L9.22,7.17,5.61,9.35c-.2-1-.67-1.62-1.28-1.61S2.94,8.86,2.94,10.27L3,11,.23,12.65,0,15.18l9.27-3,.84,7.88-3,1.82L7.16,23l9.05,0,0-1.13-3-1.79.86-7.89,9.3,3-.25-2.53-2.65-1.85,0-.68c0-1.38-.6-2.5-1.38-2.5s-1.07.67-1.18,1.69l-3.61-2.2L13.73,2.6S13.18,0,11.66,0Z"/></g></g></svg>