<?xml version="1.0" encoding="utf-8"?>
<!-- Generator: Adobe Illustrator 21.1.0, SVG Export Plug-In . SVG Version: 6.00 Build 0)  -->
<svg version="1.1" id="Capa_1" xmlns="http://www.w3.org/2000/svg" xmlns:xlink="http://www.w3.org/1999/xlink" x="0px" y="0px"
	 viewBox="0 0 512 512" style="enable-background:new 0 0 512 512;" xml:space="preserve">
<path d="M264.8,23.8l-0.6,0c-27.6,0.4-32.4,52.5-32.4,52.5l-11.8,91.5l-63.9,43.8c-3.3-19.1-12-32.7-22.4-32.8
	c-13.4-0.1-24.5,22.5-24.8,50.5c0,4.9,0.2,9.6,0.8,14.1l-49.1,33.6l-4.6,51.1l164.6-59.3L234.2,428l-53.7,36l-0.2,22.7l159.6,1.5
	l0.2-22.7l-53-37l16.5-159.1l163.5,62.4l-3.6-51.1l-48.4-34.5c0.7-4.5,1.1-9.2,1.1-14.1c0.3-28-10.4-50.8-23.8-50.9
	c-10.4-0.1-19.4,13.4-23,32.4l-63.1-45l-10-91.7C296.2,76.9,292.4,24.7,264.8,23.8z"/>
</svg>
