<svg xmlns="http://www.w3.org/2000/svg" viewBox="0 0 7.66 7.36"><defs><style>.cls-1{fill:#b8deff;}</style></defs><title>resetIcon</title><g id="Layer_2" data-name="Layer 2"><g id="Layer_1-2" data-name="Layer 1"><path class="cls-1" d="M4.93,3.61,6.17,2c.07-.1.12-.12.2,0,.41.56.84,1.12,1.29,1.71h-.6c-.13,0-.29-.06-.39,0s0,.32-.06.49c-.25,2.61-2.53,4-4.22,2.66l0-.05c.15-.2.32-.39.46-.6s.1,0,.15,0c1,.62,2.21.05,2.75-1.3A3,3,0,0,0,5.92,4c0-.31,0-.31-.2-.31H5.06S4.94,3.73,4.93,3.61Z"/><path class="cls-1" d="M2.73,3.75,1.49,5.4c-.07.1-.12.12-.2,0C.88,4.84.45,4.29,0,3.69H.61c.13,0,.29.06.39,0s0-.32.06-.49C1.23,1.35,2.53-.1,3.94,0A2.32,2.32,0,0,1,5.31.57l-.48.63c-.06.07-.1,0-.14,0-1.26-.74-2.63.21-2.94,2v.21a.58.58,0,0,0,0,.16c0,.15,0,.21.14.2h.74C2.65,3.69,2.72,3.63,2.73,3.75Z"/></g></g></svg>