<svg xmlns="http://www.w3.org/2000/svg" viewBox="0 0 6.28 7.91"><defs><style>.cls-1{fill:#b8deff;}.cls-2{fill:#407099;}</style></defs><title>searchIcon</title><g id="Layer_2" data-name="Layer 2"><g id="Layer_1-2" data-name="Layer 1"><path class="cls-1" d="M4.33,2.63v0a.6.6,0,0,0,0,.18V2.9a.08.08,0,0,0,0,0,.11.11,0,0,1,0,0,2.67,2.67,0,0,1,0,.35,3.73,3.73,0,0,1-.08.37.73.73,0,0,1-.08.24A3,3,0,0,1,4,4.31a2.6,2.6,0,0,1-.16.26,2.63,2.63,0,0,1-.27.33l-.23.21A2,2,0,0,1,3,5.32a1.88,1.88,0,0,1-.57.18,1.8,1.8,0,0,1-.69,0,1.88,1.88,0,0,1-.52-.21A2.16,2.16,0,0,1,.9,5.06a2.58,2.58,0,0,1-.27-.27L.48,4.59a2.94,2.94,0,0,1-.19-.32A2.15,2.15,0,0,1,.19,4,3.13,3.13,0,0,1,0,3.62V3.49a1.87,1.87,0,0,1,0-.31.65.65,0,0,0,0-.11A.67.67,0,0,1,0,3H0V2.95H0a.18.18,0,0,0,0-.05V2.62H0V2.56H0A.13.13,0,0,0,0,2.5V2.3a.49.49,0,0,1,0-.11H0A2,2,0,0,1,0,2v0a2.84,2.84,0,0,1,.12-.37A3.09,3.09,0,0,1,.31,1.2,2.32,2.32,0,0,1,.47,1,2.71,2.71,0,0,1,.78.57,2.1,2.1,0,0,1,1,.35,2,2,0,0,1,1.36.16,1.9,1.9,0,0,1,1.79,0h0a2,2,0,0,1,.4,0,1.85,1.85,0,0,1,.67.15A2,2,0,0,1,3.3.42a2.21,2.21,0,0,1,.27.25A2.64,2.64,0,0,1,3.82,1,2.77,2.77,0,0,1,4,1.28a2.69,2.69,0,0,1,.13.29c0,.08.06.15.08.24s.06.24.09.37a3.5,3.5,0,0,1,0,.36.11.11,0,0,1,0,0A.28.28,0,0,0,4.33,2.63Z"/><path class="cls-1" d="M5.59,7.91a.54.54,0,0,1-.29-.18l-.21-.26L4.79,7.1l-.21-.26-.29-.37L4.09,6.2,3.8,5.84l-.21-.26-.18-.23v0a2.5,2.5,0,0,0,.28-.25A2.61,2.61,0,0,0,4,4.7l.1-.17a1.83,1.83,0,0,0,.15-.29h0l.26.32.21.26.26.33.19.24.23.28.15.19.19.24.14.17.2.24a1.13,1.13,0,0,1,.2.31,1,1,0,0,1,0,.18h0v.24h0a.65.65,0,0,1-.07.24A.68.68,0,0,1,6,7.75a.54.54,0,0,1-.21.1H5.6Z"/><path class="cls-2" d="M3.68,3.18a1.68,1.68,0,0,1-.07.32,1.93,1.93,0,0,1-.12.3,2.16,2.16,0,0,1-.23.37A1.79,1.79,0,0,1,3,4.45a1.43,1.43,0,0,1-.47.26A1.27,1.27,0,0,1,2,4.78a1.35,1.35,0,0,1-.49-.15,1.55,1.55,0,0,1-.31-.22A1.68,1.68,0,0,1,1,4.2a2,2,0,0,1-.21-.34L.69,3.68a2.36,2.36,0,0,1-.13-.47,2.66,2.66,0,0,1,0-.29v0a.08.08,0,0,1,0-.05.47.47,0,0,1,0-.13V2.39h0a1.68,1.68,0,0,1,.07-.31,2,2,0,0,1,.13-.32A2,2,0,0,1,1,1.36a1.77,1.77,0,0,1,.27-.26A1.41,1.41,0,0,1,1.76.86a1.27,1.27,0,0,1,.5,0,1.35,1.35,0,0,1,.45.13,1.53,1.53,0,0,1,.35.25,1.64,1.64,0,0,1,.19.21,2.11,2.11,0,0,1,.21.35A2.33,2.33,0,0,1,3.59,2a1.92,1.92,0,0,1,.09.35h0a2.9,2.9,0,0,1,0,.74Z"/></g></g></svg>